<!-- icon666.com - MILLIONS vector ICONS FREE --><svg version="1.1" id="Capa_1" xmlns="http://www.w3.org/2000/svg" xmlns:xlink="http://www.w3.org/1999/xlink" x="0px" y="0px" viewBox="0 0 512 512" style="enable-background:new 0 0 512 512;" xml:space="preserve"><g><g><path d="M256,104.99c-83.264,0-151.004,67.74-151.004,151.004S172.736,406.998,256,406.998s151.004-67.74,151.004-151.004 S339.264,104.99,256,104.99z M256,376.997c-66.722,0-121.003-54.281-121.003-121.003S189.278,134.991,256,134.991 s121.003,54.281,121.003,121.003S322.722,376.997,256,376.997z" fill="#000000" style="fill: rgb(16, 50, 51);"></path></g></g><g><g><path d="M256,164.992c-50.179,0-91.002,40.823-91.002,91.002s40.823,91.002,91.002,91.002c50.179,0,91.002-40.823,91.002-91.002 S306.179,164.992,256,164.992z M256,316.995c-33.637,0-61.001-27.365-61.001-61.001s27.365-61.001,61.001-61.001 s61.001,27.365,61.001,61.001S289.637,316.995,256,316.995z" fill="#000000" style="fill: rgb(16, 50, 51);"></path></g></g><g><g><path d="M512,312.744V199.258h-37.212c-5.259-20.31-13.3-39.664-24.011-57.788l26.365-26.365l-80.247-80.247L370.533,61.22 c-18.123-10.71-37.478-18.752-57.789-24.013V0H199.257v37.207c-20.31,5.26-39.666,13.302-57.789,24.013l-26.363-26.363 l-80.247,80.247l26.365,26.365c-10.71,18.124-18.751,37.478-24.011,57.788H0v113.487h37.215 c5.26,20.309,13.301,39.66,24.012,57.783l-26.369,26.369l80.247,80.248l26.371-26.371c18.12,10.708,37.474,18.749,57.781,24.009 V512h113.487v-37.218c20.307-5.259,39.661-13.3,57.781-24.009l26.371,26.371l80.247-80.248l-26.369-26.369 c10.711-18.123,18.751-37.474,24.012-57.783H512z M450.568,282.742l-2.425,12.038c-5.018,24.91-14.746,48.321-28.914,69.584 l-6.816,10.23l22.303,22.302l-37.82,37.82l-22.303-22.303l-10.23,6.816c-21.261,14.164-44.672,23.892-69.583,28.911l-12.037,2.426 v31.434h-53.485h-0.001v-31.433l-12.037-2.426c-24.911-5.019-48.321-14.746-69.583-28.911l-10.23-6.816l-22.303,22.302 l-37.82-37.82l22.303-22.302l-6.816-10.23c-14.166-21.263-23.895-44.674-28.915-69.584l-2.425-12.037h-31.43v-53.485h31.429 l2.425-12.038c5.019-24.913,14.746-48.325,28.912-69.589l6.815-10.231l-22.297-22.295l37.82-37.82l22.297,22.296l10.23-6.817 c21.263-14.167,44.675-23.895,69.589-28.915l12.037-2.425V30.001h53.485v31.421l12.037,2.425 c24.914,5.02,48.326,14.747,69.589,28.915l10.23,6.817l22.297-22.296l37.82,37.82l-22.297,22.296l6.815,10.231 c14.165,21.263,23.892,44.676,28.912,69.589l2.425,12.038h31.428v53.485H450.568z" fill="#000000" style="fill: rgb(16, 50, 51);"></path></g></g></svg>