<?xml version="1.0" encoding="UTF-8"?> <svg xmlns="http://www.w3.org/2000/svg" width="1040" height="263" viewBox="0 0 1040 263" fill="none"> <path d="M0 0H1040V262.737H0V0Z" fill="#FF5E00"></path> <path fill-rule="evenodd" clip-rule="evenodd" d="M82.1055 131.024C82.1055 157.931 82.6535 179.945 83.3227 179.945C83.9918 179.945 90.6834 174.511 98.1928 167.868C111.759 155.87 111.846 155.721 111.846 144.471V133.151H135.213H158.58V157.612V182.072H172.388H186.196V132.088V82.1035H172.388H158.58V94.8655V107.627H135.213H111.846V94.8655V82.1035H96.9756H82.1055V131.024ZM528.209 128.072V174.041L541.866 161.572L555.521 149.104L555.674 115.604L555.824 82.1035H542.017H528.209V128.072ZM591.022 98.0198C588.876 109.478 579.502 117.509 561.362 123.431C557.758 124.607 557.471 126.285 558.59 139.668C559.99 156.395 566.752 173.286 577.475 186.841C584.651 195.915 607.224 211.85 612.898 211.85C616.269 211.85 634.424 195.33 634.424 192.265C634.424 191.337 632.75 190.572 630.706 190.561C624.408 190.527 605.491 178.422 598.466 169.927C594.797 165.494 590.542 157.586 589.008 152.358L586.219 142.85L594.17 137.082C603.226 130.514 611.855 119.904 615.109 111.335C617.161 105.928 616.734 105.118 609.412 100.513C592.515 89.8883 592.545 89.8926 591.022 98.0198ZM725.157 96.1885C724.324 97.0201 723.644 115.776 723.644 137.869V178.035L731.022 172.401L738.4 166.766L745.539 171.182L752.677 175.6L758.871 169.068C762.281 165.473 768.558 159.747 772.824 156.34L780.578 150.144L800.106 166.109C819.051 181.596 819.975 182.072 831.119 182.072H842.605V138.469V94.8655H830.921H819.238V122.591C819.238 153.598 819.815 152.926 804.561 139.645C798.388 134.27 797.727 132.847 800.083 130.003C801.604 128.168 802.473 126.341 802.016 125.941C801.557 125.543 797.06 122.644 792.021 119.502L782.861 113.789L766.069 130.152L749.276 146.515L748.675 121.221L748.074 95.929L737.371 95.3015C731.483 94.9569 725.987 95.3547 725.157 96.1885ZM272.32 98.9748C271.476 100.34 262.465 101.246 249.732 101.246C226.386 101.246 216.805 103.997 206.719 113.589C197.895 121.983 194.693 129.455 194.693 141.659C194.693 157.999 203.002 170.278 219.8 178.769L226.851 182.334L240.927 169.972L255 157.612L241.496 156.308C226.649 154.876 222.309 151.505 222.309 141.406C222.309 131.937 230.942 126.77 246.766 126.77H260.026L260.969 145.382C261.959 164.916 267.472 180.266 278.132 193.175L282.911 198.963L292.847 190.459L302.784 181.953L296.031 171.076C287.054 156.616 285.38 134.744 292.09 119.558L296.454 109.678L287.899 104.269C276.626 97.1456 274 96.2523 272.32 98.9748ZM335.433 101.468C316.327 110.937 309.406 124.754 309.406 153.426V173.839L323.214 161.625C335.108 151.105 337.021 148.41 337.021 142.18C337.021 137.027 338.804 133.166 343.231 128.734C351.346 120.608 361.704 120.319 370.779 127.966C377.194 133.37 377.251 133.609 377.846 157.212L378.445 181.009L391.722 181.643L404.999 182.274V156.565C404.999 128.308 402.684 120.577 390.856 109.335C377.336 96.4884 352.571 92.9746 335.433 101.468ZM489.971 99.1195C489.971 100.396 481.451 101.246 468.66 101.246C439.612 101.246 425.505 107.789 416.241 125.556C408.19 141 414.858 164.016 430.357 174.287C443.848 183.227 445.151 183.006 460.231 169.232L474.039 156.618L462.746 156.582C456.537 156.563 449.552 155.529 447.226 154.283C437.786 149.223 438.727 133.764 448.753 129.191C451.67 127.859 459.532 126.77 466.221 126.77H478.385L478.591 142.191C478.827 159.696 483.479 173.885 494.005 189.204L500.822 199.126L511.242 190.14C520.434 182.213 521.307 180.758 518.643 177.812C516.984 175.976 513.521 169.721 510.951 163.914C504.846 150.129 504.777 133.341 510.774 119.802L515.274 109.644L505.277 103.359C494.904 96.8351 489.971 95.4695 489.971 99.1195ZM690.611 98.945C689.502 100.019 678.556 101.215 666.288 101.604C640.098 102.433 630.455 106.285 620.992 119.694C606.092 140.809 614.791 168.587 639.543 178.939L647.849 182.413L660.765 169.48L673.681 156.548H662.454C653.364 156.548 650.23 155.553 646.012 151.327C639.394 144.703 639.394 138.616 646.012 131.992C650.528 127.468 653.156 126.773 665.661 126.785L680.096 126.798L680.219 144.333C680.328 159.722 681.198 163.599 687.327 176.044C691.168 183.842 696.421 192.205 698.998 194.632L703.686 199.041L712.746 189.8L721.807 180.556L716.383 172.554C706.418 157.852 704.045 139.434 710.07 123.58C711.848 118.901 713.758 113.636 714.314 111.881C714.977 109.799 711.948 106.66 705.592 102.842C694.896 96.4161 693.579 96.0736 690.611 98.945ZM927.577 99.1195C927.577 100.396 918.872 101.266 905.803 101.293C889.352 101.329 881.947 102.287 875.513 105.213C859.041 112.707 846.866 133.051 850.253 147.43C852.693 157.793 860.105 169.087 867.939 174.385C881.125 183.304 882.727 183.025 897.792 169.187L911.553 156.548H900.307C887.041 156.548 881.378 153.983 878.625 146.728C876.033 139.905 880.868 129.954 887.661 128.134C890.336 127.415 898.081 126.815 904.87 126.8L917.217 126.77L915.825 136.05C913.421 152.111 922.434 178.973 935.369 194.283L939.261 198.892L948.578 190.467L957.895 182.045L950.834 168.783C942.088 152.352 941.249 135.765 948.355 119.802L952.88 109.644L942.883 103.359C932.51 96.8351 927.577 95.4695 927.577 99.1195Z" fill="white"></path> </svg> 