<svg width="186" height="48" viewBox="0 0 186 48" fill="none" xmlns="http://www.w3.org/2000/svg">
<path d="M6.0663 9.73961V6.36287L4.41257 9.12565H3.59973L1.97404 6.44659V9.73961H0.320312V3.40472H1.80586L4.04819 7.06054L6.23447 3.40472H7.72002L7.74805 9.73961H6.0663Z" fill="#878787"/>
<path d="M21.202 9.46041C20.6694 9.18134 20.249 8.79064 19.9407 8.28832C19.6323 7.78599 19.4922 7.22785 19.4922 6.58599C19.4922 5.94413 19.6323 5.38599 19.9407 4.88367C20.249 4.38134 20.6694 3.99064 21.202 3.71157C21.7345 3.4325 22.3512 3.29297 23.0239 3.29297C23.6966 3.29297 24.3132 3.4325 24.8458 3.71157C25.3783 3.99064 25.7988 4.38134 26.1071 4.88367C26.4154 5.38599 26.5555 5.94413 26.5555 6.58599C26.5555 7.22785 26.4154 7.78599 26.1071 8.28832C25.7988 8.79064 25.3783 9.18134 24.8458 9.46041C24.3132 9.73948 23.6966 9.87902 23.0239 9.87902C22.3512 9.87902 21.7625 9.73948 21.202 9.46041ZM23.8928 8.17669C24.145 8.03716 24.3693 7.8139 24.5094 7.53483C24.6496 7.25576 24.7336 6.94878 24.7336 6.58599C24.7336 6.2232 24.6496 5.91622 24.5094 5.63715C24.3693 5.35808 24.145 5.16274 23.8928 4.99529C23.6405 4.85576 23.3322 4.77204 23.0239 4.77204C22.7155 4.77204 22.4072 4.85576 22.155 4.99529C21.9027 5.13483 21.6785 5.35808 21.5383 5.63715C21.3982 5.91622 21.3141 6.2232 21.3141 6.58599C21.3141 6.94878 21.3982 7.25576 21.5383 7.53483C21.6785 7.8139 21.9027 8.00925 22.155 8.17669C22.4072 8.31622 22.7155 8.39994 23.0239 8.39994C23.3322 8.39994 23.6405 8.31622 23.8928 8.17669Z" fill="#878787"/>
<path d="M43.4009 4.82792H41.4388V9.73955H39.673V4.82792H37.7109V3.40466H43.4009V4.82792Z" fill="#878787"/>
<path d="M56.2645 9.46041C55.7319 9.18134 55.3115 8.79064 55.0032 8.28832C54.6948 7.78599 54.5547 7.22785 54.5547 6.58599C54.5547 5.94413 54.6948 5.38599 55.0032 4.88367C55.3115 4.38134 55.7319 3.99064 56.2645 3.71157C56.797 3.4325 57.4137 3.29297 58.0864 3.29297C58.7591 3.29297 59.3757 3.4325 59.9083 3.71157C60.4408 3.99064 60.8613 4.38134 61.1696 4.88367C61.4779 5.38599 61.618 5.94413 61.618 6.58599C61.618 7.22785 61.4779 7.78599 61.1696 8.28832C60.8613 8.79064 60.4408 9.18134 59.9083 9.46041C59.3757 9.73948 58.7591 9.87902 58.0864 9.87902C57.4137 9.87902 56.797 9.73948 56.2645 9.46041ZM58.9553 8.17669C59.2075 8.03716 59.4318 7.8139 59.5719 7.53483C59.7121 7.25576 59.7962 6.94878 59.7962 6.58599C59.7962 6.2232 59.7121 5.91622 59.5719 5.63715C59.4318 5.35808 59.2075 5.16274 58.9553 4.99529C58.703 4.85576 58.3947 4.77204 58.0864 4.77204C57.778 4.77204 57.4697 4.85576 57.2175 4.99529C56.9652 5.13483 56.741 5.35808 56.6008 5.63715C56.4607 5.91622 56.3766 6.2232 56.3766 6.58599C56.3766 6.94878 56.4607 7.25576 56.6008 7.53483C56.741 7.8139 56.9652 8.00925 57.2175 8.17669C57.4697 8.31622 57.778 8.39994 58.0864 8.39994C58.3947 8.39994 58.703 8.31622 58.9553 8.17669Z" fill="#878787"/>
<path d="M78.4634 4.82792H76.5013V9.73955H74.7355V4.82792H72.7734V3.40466H78.4634V4.82792Z" fill="#878787"/>
<path d="M95.2309 8.37211V9.76745H90.1016V3.40466H95.0908V4.80001H91.8674V5.86048H94.6983V7.20001H91.8674V8.37211H95.2309Z" fill="#878787"/>
<path d="M108.597 3.40472L109.746 5.13496L110.867 3.40472H112.97L110.867 6.44659L113.138 9.76752H111.008L109.718 7.89775L108.457 9.76752H106.383L108.653 6.53031L106.523 3.40472H108.597V3.40472Z" fill="#878787"/>
<path d="M130.57 3.40466V9.73955H128.776V7.25583H126.31V9.73955H124.516V3.40466H126.31V5.77676H128.776V3.40466H130.57Z" fill="#878787"/>
<path d="M142.762 3.40466H144.528V7.1442L147.163 3.40466H148.845V9.73955H147.079V6.02792L144.444 9.73955H142.734V3.40466H142.762Z" fill="#878787"/>
<path d="M163.615 7.31164H162.802V9.73955H161.008V3.40466H162.802V5.86048H163.671L165.184 3.40466H167.09L165.1 6.47443L167.118 9.76745H165.1L163.615 7.31164Z" fill="#878787"/>
<path d="M182.733 8.51164H180.042L179.537 9.73955H177.688L180.49 3.40466H182.256L185.087 9.73955H183.237L182.733 8.51164ZM182.2 7.20001L181.387 5.1628L180.575 7.20001H182.2Z" fill="#878787"/>
<path d="M131.8 28.6045H131.94C133.537 28.6045 134.967 28.1022 136.004 27.1813C137.041 26.2324 137.602 24.9487 137.602 23.4976L137.574 19.2278C137.546 18.5301 137.349 17.8325 137.013 17.1348C136.677 16.465 136.172 15.8231 135.556 15.2929C134.939 14.7627 134.238 14.3162 133.509 14.0371C132.753 13.7301 131.996 13.5906 131.239 13.5906H99.1176V13.5627H95.5859V44.1487H96.7071H99.1176H130.903C134.406 44.1487 137.574 41.8604 137.574 38.7069L137.602 34.6325C137.602 31.5348 135.163 28.6325 131.8 28.6045ZM125.801 35.9999C125.773 36.3627 125.633 36.6697 125.381 36.9208C125.129 37.1441 124.764 37.2836 124.372 37.2836H106.657V32.0371H124.652C124.792 32.0371 124.933 32.065 125.073 32.1208C125.213 32.1766 125.353 32.2604 125.465 32.372C125.577 32.4836 125.661 32.5952 125.745 32.7348C125.829 32.8743 125.829 33.0138 125.829 33.1255L125.801 35.9999ZM125.998 23.6929C125.998 24.0836 125.857 24.4185 125.605 24.6418C125.353 24.8929 124.961 25.0325 124.568 25.0045H106.657V20.3999H124.82C124.961 20.3999 125.101 20.4278 125.241 20.4836C125.381 20.5394 125.521 20.6231 125.633 20.7348C125.745 20.8464 125.829 20.958 125.914 21.0976C125.97 21.2371 125.998 21.3766 125.998 21.4883V23.6929Z" fill="#3AB7EC"/>
<path d="M31.1198 13.6466V25.2838H11.4713V13.6466H0.34375V44.1489H11.4713V32.0373H31.1198V44.1489H42.2194V13.6466H31.1198Z" fill="#3AB7EC"/>
<path d="M77.4272 37.3117H71.5971H60.6377C60.4696 37.3117 60.2734 37.2838 60.1052 37.2001C59.937 37.1443 59.7688 37.0326 59.6287 36.8931C59.4885 36.7536 59.3764 36.614 59.2923 36.4466C59.2082 36.2791 59.1802 36.1117 59.1802 35.9443V32.0094H89.9002V28.8838L89.9563 20.2605C89.9563 19.5349 89.7881 18.8094 89.5078 18.0838C89.1995 17.3582 88.751 16.6884 88.1904 16.0745C87.6298 15.4605 86.9571 14.9303 86.2284 14.5396C85.4996 14.121 84.6868 13.8419 83.902 13.7024C83.5096 13.6187 83.1171 13.5908 82.7247 13.5908H55.0599C53.0418 13.5908 51.2479 14.2326 49.9586 15.4326C48.6693 16.6326 47.9405 18.2791 47.9405 20.121V37.5349C47.9125 38.3163 48.0806 39.1536 48.445 39.9349C48.8094 40.7163 49.342 41.4698 50.0147 42.1117C50.6874 42.7536 51.4722 43.2559 52.3411 43.6187C53.182 43.9815 54.0789 44.1768 54.9478 44.1768H83.2853C85.2193 44.0652 86.9291 43.3675 88.1344 42.1675C89.3677 40.9675 90.0123 39.3489 90.0123 37.5629V37.507V37.2838H77.4272V37.3117ZM59.1522 21.7675C59.1522 21.4047 59.2923 21.0698 59.5726 20.8187C59.8529 20.5675 60.2173 20.4559 60.6097 20.4559H77.4272C77.5954 20.4559 77.7916 20.4838 77.9598 20.5675C78.1279 20.6512 78.2961 20.7349 78.4363 20.8745C78.5764 21.014 78.6885 21.1535 78.7726 21.321C78.8567 21.4884 78.8847 21.6559 78.8847 21.8233L78.8567 25.1722H59.1242L59.1522 21.7675Z" fill="#3AB7EC"/>
<path d="M184.499 17.8045C184.106 16.9952 183.574 16.2697 182.873 15.6278C182.172 14.9859 181.359 14.4836 180.491 14.1208C179.622 13.758 178.697 13.5906 177.828 13.5627H150.443C148.397 13.5627 146.547 14.2325 145.23 15.4604C143.912 16.6883 143.184 18.3906 143.212 20.2604V20.4278H155.741H160.029H172.642C172.811 20.4278 173.007 20.4557 173.175 20.5394C173.343 20.6231 173.511 20.7069 173.651 20.8464C173.792 20.9859 173.904 21.1255 173.96 21.2929C174.044 21.4604 174.072 21.6278 174.072 21.7673V25.1162H147.78C146.491 25.1162 145.342 25.5348 144.501 26.2883C143.66 27.0418 143.212 28.1022 143.24 29.3022V37.5348C143.24 38.3441 143.408 39.1534 143.8 39.9627C144.165 40.7441 144.725 41.4976 145.398 42.1394C146.071 42.7813 146.884 43.2836 147.724 43.6464C148.593 44.0092 149.49 44.2045 150.359 44.2045H169.503C170.4 44.1487 171.269 43.9534 172.026 43.5627C172.783 43.1999 173.399 42.6697 173.876 42.0278V44.2045H185.059V20.2604C185.059 19.4511 184.863 18.6138 184.499 17.8045ZM173.595 36.9487C173.315 37.1999 172.951 37.3394 172.558 37.3394H155.545C155.376 37.3394 155.236 37.3115 155.068 37.2557C154.9 37.1999 154.76 37.0883 154.648 36.9766C154.536 36.865 154.423 36.7255 154.367 36.5859C154.311 36.4464 154.255 36.3069 154.255 36.1394L154.283 33.3487C154.283 32.9859 154.395 32.6511 154.648 32.4278C154.9 32.2045 155.236 32.065 155.629 32.065H173.988L174.016 35.9999C174.016 36.3627 173.876 36.6976 173.595 36.9487Z" fill="#3AB7EC"/>
</svg>
