<svg width="299" height="80" viewBox="0 0 299 80" fill="none" xmlns="http://www.w3.org/2000/svg">
<path fill-rule="evenodd" clip-rule="evenodd" d="M171.28 66.5195C170.851 67.8479 170.441 69.1143 170.006 70.4489H171.416C171.578 70.1447 171.733 69.8157 171.914 69.4929C172.902 67.6741 174.424 66.6251 176.482 66.4637C177.687 66.3705 178.912 66.3705 180.105 66.4823C181.845 66.6437 182.622 67.6058 182.423 69.3564C182.193 71.4731 181.397 73.385 179.993 74.999C179.03 76.1039 177.724 76.5819 176.326 76.6812C175.133 76.7619 173.896 76.7619 172.715 76.557C170.981 76.2777 170.36 75.2969 170.546 73.5402C170.577 73.174 170.671 72.8077 170.751 72.3608H169.365C168.881 73.7513 168.396 75.1728 167.893 76.6191H165.605C166.755 73.1988 167.868 69.8654 168.993 66.5133H171.28V66.5195ZM175.475 74.9741C176.656 75.0114 177.799 74.7072 178.563 73.5961C179.353 72.4415 179.794 71.1379 179.962 69.7536C180.067 68.897 179.713 68.388 178.837 68.2638C178.054 68.1583 177.234 68.1831 176.444 68.2514C175.468 68.3321 174.716 68.8598 174.306 69.7288C173.877 70.6351 173.461 71.5662 173.212 72.5408C172.759 74.3037 173.324 74.9555 175.176 74.9803C175.245 74.9741 175.313 74.9741 175.475 74.9741Z" fill="#1D2029"/>
<path fill-rule="evenodd" clip-rule="evenodd" d="M295.496 76.644H293.259C294.104 74.1734 294.918 71.7898 295.733 69.3937C295.689 69.3688 295.633 69.344 295.583 69.313C295.36 69.5985 295.142 69.8716 294.931 70.1634C293.564 72.0318 292.196 73.9127 290.835 75.7874C290.413 76.3647 289.915 76.7682 289.157 76.7495C288.387 76.7371 288.132 76.5447 288.07 75.7563C287.933 73.981 287.815 72.2057 287.697 70.4241C287.672 70.0951 287.641 69.7661 287.517 69.4309C286.503 71.7711 285.913 74.2603 284.987 76.644H282.874C282.893 76.4205 282.874 76.2219 282.93 76.0481C283.825 73.3665 284.72 70.6972 285.633 68.028C286.037 66.8424 287.026 66.2216 288.188 66.3582C288.971 66.4389 289.275 66.6872 289.344 67.4756C289.493 69.1143 289.58 70.7655 289.698 72.4043C289.741 73.0002 289.791 73.5775 289.847 74.1672C289.915 74.1859 289.996 74.2045 290.065 74.2169C290.301 73.9127 290.556 73.6086 290.786 73.3044C292.178 71.3987 293.576 69.4992 294.962 67.6059C295.434 66.9603 295.994 66.4451 296.833 66.3768C297.1 66.3582 297.373 66.3582 297.634 66.4079C298.442 66.5755 298.709 67.0038 298.492 67.7921C298.349 68.3136 298.15 68.8102 297.982 69.3254C297.249 71.4794 296.522 73.6458 295.795 75.8184C295.726 76.0667 295.621 76.315 295.496 76.644Z" fill="#1D2029"/>
<path fill-rule="evenodd" clip-rule="evenodd" d="M111.786 76.6872C112.644 74.1794 113.452 71.8516 114.247 69.5176C114.191 69.4741 114.129 69.4369 114.08 69.3996C113.887 69.6603 113.663 69.9148 113.477 70.1818C112.128 72.0254 110.786 73.869 109.437 75.7188C109.052 76.2527 108.623 76.6934 107.914 76.7493C107.02 76.83 106.659 76.5631 106.591 75.663C106.485 74.3594 106.423 73.0496 106.342 71.746C106.286 70.9763 106.224 70.2128 106.081 69.4245C105.453 70.548 105.18 71.8019 104.764 72.9938C104.347 74.1856 103.987 75.4085 103.576 76.6314H101.352C101.414 76.3893 101.432 76.1906 101.482 76.0168C102.365 73.3724 103.266 70.7342 104.13 68.0898C104.484 66.9911 105.242 66.4635 106.355 66.3579C107.386 66.2648 107.859 66.6683 107.927 67.7112C108.064 69.6169 108.188 71.5164 108.325 73.4345C108.331 73.6642 108.368 73.8938 108.393 74.167C108.872 74.1049 109.008 73.7262 109.213 73.4531C110.674 71.4853 112.141 69.5114 113.576 67.5312C114.049 66.867 114.651 66.4324 115.478 66.3642C115.708 66.3455 115.95 66.3642 116.18 66.4014C116.951 66.569 117.206 66.9477 117.056 67.7112C116.994 67.9967 116.895 68.2885 116.795 68.574C115.988 70.9639 115.192 73.3476 114.39 75.7313C114.067 76.6872 114.067 76.6872 113.067 76.6872C112.712 76.6872 112.346 76.6872 111.786 76.6872Z" fill="#1D2029"/>
<path fill-rule="evenodd" clip-rule="evenodd" d="M225.262 76.6876C224.871 77.8112 224.51 78.8478 224.144 79.9155H221.925C221.993 79.63 222.043 79.3382 222.13 79.0775C223.311 75.5392 224.498 72.0072 225.691 68.4813C226.219 66.9108 226.841 66.4763 228.525 66.4763C229.706 66.4763 230.88 66.4391 232.061 66.4887C232.583 66.5135 233.124 66.6439 233.615 66.8301C234.317 67.1157 234.709 67.693 234.802 68.4627C234.821 68.5931 234.845 68.7296 234.833 68.8662C234.578 71.2561 233.864 73.4659 232.167 75.2413C231.098 76.3586 229.687 76.6752 228.196 76.7C227.239 76.7 226.269 76.6876 225.262 76.6876ZM225.865 74.8999C226.89 74.8999 227.785 74.9619 228.687 74.8812C229.787 74.7881 230.706 74.2419 231.154 73.2176C231.601 72.1686 232.005 71.0947 232.285 69.996C232.571 68.8972 232.005 68.2889 230.843 68.2392C230.271 68.2144 229.693 68.2268 229.122 68.2268C228.121 68.2392 228.059 68.2703 227.748 69.189C227.226 70.7222 226.729 72.2431 226.219 73.7763C226.114 74.1301 226.002 74.4653 225.865 74.8999Z" fill="#1D2029"/>
<path fill-rule="evenodd" clip-rule="evenodd" d="M55.3177 76.6873C54.9323 77.8295 54.5595 78.8786 54.1866 79.9276H51.9492C52.0673 79.549 52.1357 79.2262 52.2413 78.9158C53.3973 75.4831 54.5532 72.0379 55.703 68.6052C55.79 68.3507 55.8708 68.1024 55.9827 67.8478C56.3991 66.9912 57.0703 66.4884 58.0398 66.476C59.4878 66.4574 60.9421 66.4263 62.3653 66.4822C64.236 66.5567 65.2366 67.7796 64.845 69.5922C64.5716 70.8274 64.1428 72.0441 63.6331 73.2111C62.6326 75.5389 60.7681 76.6749 58.2324 76.6749H55.3177V76.6873ZM55.9764 74.912C56.946 74.912 57.7912 74.9492 58.6115 74.9058C59.5935 74.8437 60.4387 74.4464 60.9918 73.596C61.7438 72.429 62.1975 71.1316 62.3591 69.7536C62.4896 68.8224 61.9924 68.3134 61.0478 68.2451C60.4076 68.2203 59.7737 68.2327 59.1274 68.2327C58.1765 68.2451 58.1454 68.2638 57.8409 69.1514C57.2629 70.8275 56.7098 72.5097 56.1442 74.1919C56.0821 74.3781 56.0448 74.5768 55.9764 74.912Z" fill="#1D2029"/>
<path fill-rule="evenodd" clip-rule="evenodd" d="M16.3882 68.2393C16.6057 67.575 16.7735 67.0474 16.9476 66.4825C19.042 66.4825 21.0929 66.4329 23.15 66.5011C24.3992 66.5322 25.0145 67.3578 24.8404 68.5993C24.7783 69.0276 24.6602 69.4435 24.5235 69.8656C23.9952 71.492 23.4545 73.1183 22.9138 74.7323C22.3731 76.2656 21.7889 76.6815 20.1358 76.6877C18.6629 76.6939 17.1713 76.6877 15.6984 76.6877C15.5306 76.6877 15.369 76.6939 15.2012 76.6753C13.8588 76.5635 13.3367 75.9241 13.5853 74.6019C13.7221 73.9129 13.9085 73.2239 14.1882 72.5907C14.8967 71.0823 16.0464 70.2629 17.7679 70.2939C19.1787 70.325 20.5895 70.3064 21.9443 70.3064C22.0375 70.1884 22.0997 70.1512 22.1183 70.0953C22.6901 68.5869 22.4664 68.2393 20.8381 68.2393C19.7443 68.2393 18.6318 68.2393 17.5131 68.2393H16.3882ZM21.4285 72.2058C21.2482 72.1376 21.1985 72.0879 21.1302 72.0879C20.1544 72.0817 19.1849 72.0693 18.2278 72.0755C16.9227 72.0817 16.2701 72.659 16.0961 73.9688C16.0153 74.5585 16.2266 74.8751 16.8357 74.8999C17.8674 74.9372 18.9115 74.9371 19.9556 74.8875C20.2104 74.8689 20.5584 74.6454 20.6578 74.4281C20.9624 73.7143 21.1737 72.9508 21.4285 72.2058Z" fill="#1D2029"/>
<path fill-rule="evenodd" clip-rule="evenodd" d="M120.579 72.3047C120.467 72.4164 120.436 72.4351 120.412 72.4599C119.697 74.3346 120.088 74.9056 122.102 74.9119C123.606 74.9181 125.11 74.9119 126.757 74.9119C126.552 75.545 126.365 76.0727 126.166 76.6313C125.806 76.65 125.52 76.681 125.234 76.681C123.724 76.6872 122.195 76.681 120.685 76.681C120.461 76.681 120.225 76.681 119.983 76.6624C118.087 76.4948 117.335 75.5823 117.689 73.7014C117.994 72.1185 118.516 70.5914 119.287 69.1699C119.914 68.034 120.853 67.2456 122.096 66.8483C123.761 66.3083 125.477 66.3083 127.167 66.6559C128.572 66.9414 129.125 67.8291 128.901 69.2382C128.839 69.6665 128.702 70.0886 128.565 70.4921C128.087 71.8454 127.428 72.2985 126.005 72.2985C124.507 72.3047 122.997 72.3047 121.487 72.3047H120.579ZM121.089 70.5169C122.68 70.5169 124.221 70.5356 125.75 70.4983C125.93 70.4983 126.179 70.2873 126.278 70.1135C126.682 69.4058 126.359 68.5368 125.557 68.3505C124.569 68.1333 123.556 68.096 122.593 68.5243C121.785 68.8906 121.288 69.5237 121.089 70.5169Z" fill="#1D2029"/>
<path fill-rule="evenodd" clip-rule="evenodd" d="M68.7103 72.3049C67.8651 74.2975 68.2504 74.9058 70.3138 74.912C71.7867 74.9183 73.2658 74.912 74.8941 74.912C74.7077 75.5452 74.5585 76.0604 74.3845 76.6129C74.08 76.6439 73.8189 76.6812 73.5393 76.6812C71.9358 76.6874 70.32 76.6936 68.7103 76.6812C68.3002 76.6688 67.9024 76.6253 67.5109 76.5508C66.3487 76.3274 65.6837 75.5949 65.8204 74.4279C66.0814 72.2366 66.7154 70.1571 68.0516 68.3507C68.6233 67.581 69.4375 67.103 70.3573 66.8113C72.0104 66.3147 73.6947 66.3085 75.354 66.6437C76.7275 66.9292 77.2744 67.7362 77.0818 69.1267C77.0196 69.6171 76.8953 70.1137 76.7089 70.5792C76.2365 71.8642 75.5902 72.2987 74.2105 72.3049C72.6941 72.3049 71.1838 72.3049 69.6674 72.3049H68.7103ZM69.307 70.542H70.2765C71.4449 70.542 72.6195 70.542 73.8003 70.542C74.2478 70.542 74.4529 70.2751 74.5709 69.8902C74.8258 69.1018 74.3907 68.419 73.5144 68.3011C72.9675 68.2204 72.3833 68.2328 71.8178 68.27C70.5624 68.3445 69.7296 69.077 69.307 70.542Z" fill="#1D2029"/>
<path fill-rule="evenodd" clip-rule="evenodd" d="M93.3076 76.8241C92.5183 76.7185 91.7041 76.6813 90.9149 76.4951C89.7092 76.1971 89.0815 75.4274 89.1188 74.1735C89.2058 71.7774 90.0696 69.6668 91.7414 67.9163C92.4872 67.1155 93.5002 66.6996 94.5754 66.5196C95.9738 66.2837 97.3845 66.2527 98.7767 66.4886C100.374 66.7555 101.182 67.6866 101.033 69.2819C100.828 71.3925 100.088 73.3168 98.6524 74.9308C97.5896 76.1412 96.1602 76.582 94.6251 76.7185C94.1777 76.7682 93.7488 76.7247 93.3138 76.7247C93.3138 76.762 93.3138 76.793 93.3076 76.8241ZM94.0782 74.9742C95.2591 75.0363 96.3777 74.6266 97.167 73.5899C98.0123 72.5036 98.3789 71.1939 98.5716 69.853C98.6586 69.2137 98.3914 68.6674 97.7761 68.357C96.2597 67.6121 93.6867 68.3012 92.8353 69.7413C92.394 70.4862 92.0646 71.3118 91.8222 72.1498C91.207 74.1983 91.8284 74.9866 94.0782 74.9742Z" fill="#1D2029"/>
<path fill-rule="evenodd" clip-rule="evenodd" d="M280.58 68.2516C279.114 68.2516 277.908 68.2081 276.702 68.2702C275.801 68.3137 274.875 69.7662 275.186 70.6291C275.267 70.8401 275.609 71.0388 275.857 71.076C276.317 71.1505 276.796 71.0946 277.268 71.1133C278.169 71.1443 278.424 71.5664 277.945 72.3361C277.722 72.69 277.392 73.0065 277.057 73.2859C275.925 74.2418 274.751 75.1357 273.632 76.0979C273.11 76.5448 272.569 76.7683 271.892 76.7062C271.457 76.6628 271.022 76.6938 270.45 76.6938C270.823 76.0296 271.42 75.7813 271.867 75.3902C272.383 74.9495 272.942 74.5646 273.471 74.1549C273.962 73.7701 274.453 73.3914 274.875 72.8327C274.589 72.8017 274.303 72.7831 274.018 72.7458C273.06 72.6279 272.532 72.0692 272.613 71.1257C272.719 69.8593 273.098 68.6799 273.918 67.6867C274.571 66.8984 275.428 66.47 276.479 66.47C278.225 66.47 279.971 66.4638 281.718 66.47C282.936 66.4825 283.296 66.9666 282.911 68.1523C282.134 70.5794 281.308 72.9879 280.487 75.4151C280.363 75.7937 280.226 76.1724 280.071 76.6131H277.79C278.722 73.8384 279.623 71.1505 280.58 68.2516Z" fill="#1D2029"/>
<path fill-rule="evenodd" clip-rule="evenodd" d="M4.30569 66.5194H6.59897C6.16393 67.8478 5.74754 69.1141 5.3125 70.4487H10.1414C10.6013 69.1265 11.0364 67.8291 11.4901 66.5007H13.7833C12.646 69.9086 11.5087 73.2607 10.39 76.6189H8.10918C8.58773 75.1726 9.02898 73.8132 9.46402 72.4599C8.69338 72.2365 5.92777 72.1868 4.66615 72.3668C4.18761 73.7511 3.70284 75.1788 3.20566 76.6189H0.924805C2.04969 73.2234 3.16837 69.8962 4.30569 66.5194Z" fill="#1D2029"/>
<path fill-rule="evenodd" clip-rule="evenodd" d="M132.238 66.5007H134.525C134.102 67.8229 133.686 69.0893 133.257 70.4363H138.08C138.509 69.1762 138.956 67.8788 139.416 66.5318H141.66C141.573 66.8235 141.523 67.078 141.442 67.3263C140.504 70.1631 139.553 72.9876 138.602 75.8182C138.316 76.681 138.297 76.681 137.415 76.681C136.992 76.6872 136.576 76.681 136.023 76.681C136.526 75.154 136.961 73.8007 137.458 72.2861C136.576 72.2737 135.793 72.2675 134.997 72.2675C134.233 72.2613 133.462 72.2675 132.636 72.2675C132.126 73.7325 131.641 75.1478 131.144 76.6189H128.882C129.945 73.1862 131.144 69.8652 132.238 66.5007Z" fill="#1D2029"/>
<path fill-rule="evenodd" clip-rule="evenodd" d="M250.233 68.239C250.451 67.5624 250.612 67.0534 250.811 66.4699C251.414 66.4699 252.005 66.4699 252.607 66.4699C254.087 66.4699 255.572 66.4513 257.051 66.4823C258.53 66.5071 259.096 67.3017 258.723 68.7356C258.387 70.0454 257.896 70.6289 256.498 71.3924C257.374 71.858 257.455 72.5781 257.213 73.4223C256.666 75.3714 255.51 76.7309 253.105 76.6874C251.464 76.6564 249.811 76.6874 248.164 76.6812C247.903 76.6812 247.635 76.644 247.281 76.6254C247.374 76.2777 247.437 75.9984 247.524 75.7253C247.598 75.4646 247.704 75.2225 247.816 74.9121C249.289 74.9121 250.73 74.9121 252.172 74.9121C252.508 74.9121 252.844 74.9369 253.179 74.8997C254.13 74.8128 254.863 74.0368 254.919 73.1057C254.95 72.6215 254.683 72.3174 254.118 72.2925C253.347 72.2491 252.564 72.2677 251.793 72.2677C250.985 72.2615 250.177 72.2615 249.369 72.2491C249.301 72.2491 249.239 72.2118 249.052 72.156C249.202 71.6345 249.351 71.1007 249.531 70.4986H252.676C253.316 70.4986 253.956 70.5048 254.59 70.4924C255.255 70.4799 255.752 70.1696 256.038 69.5674C256.442 68.7356 256.175 68.2639 255.255 68.239C254.012 68.2142 252.769 68.2266 251.526 68.2266H250.233V68.239Z" fill="#1D2029"/>
<path fill-rule="evenodd" clip-rule="evenodd" d="M151.361 74.8378C151.709 74.9061 151.927 74.9495 152.238 75.0116C152.045 75.5703 151.871 76.0917 151.691 76.6193H140.162C140.342 76.0234 140.485 75.5206 140.653 74.9681C141.449 75.0675 141.865 74.6019 142.294 74.0432C143.885 71.883 145.532 69.7538 147.141 67.6123C147.62 66.9667 148.161 66.4701 149.006 66.3645C150.156 66.228 150.622 66.5942 150.74 67.7488C150.945 70.089 151.156 72.4231 151.361 74.8378ZM149.136 74.8688C148.906 72.6838 149.012 70.5918 148.658 68.3013C146.998 70.5856 145.494 72.6651 143.916 74.8688H149.136Z" fill="#1D2029"/>
<path fill-rule="evenodd" clip-rule="evenodd" d="M220.949 74.8189C221.273 74.8872 221.521 74.9493 221.819 75.0176C221.633 75.5638 221.471 76.0604 221.285 76.6191H209.713C209.893 76.048 210.061 75.5514 210.241 74.9803C211.117 75.1107 211.521 74.4962 211.969 73.9002C213.579 71.7587 215.225 69.6419 216.829 67.4755C217.376 66.7554 218.053 66.3519 218.961 66.3519C219.831 66.3395 220.179 66.6437 220.272 67.5189C220.483 69.555 220.651 71.591 220.844 73.6271C220.869 74.0182 220.912 74.4217 220.949 74.8189ZM218.345 68.5494C218.265 68.5183 218.184 68.4997 218.103 68.4749C216.599 70.5668 215.051 72.6339 213.529 74.8562H218.681C218.563 72.7084 218.457 70.6289 218.345 68.5494Z" fill="#1D2029"/>
<path fill-rule="evenodd" clip-rule="evenodd" d="M262.097 66.5068H264.378C263.974 67.7732 263.595 68.9712 263.16 70.3058H264.254C265.497 70.3058 266.74 70.281 267.976 70.3182C269.039 70.3555 269.617 70.9514 269.543 71.9819C269.474 73.2854 269.039 74.4773 268.238 75.5139C267.628 76.3147 266.752 76.6561 265.776 76.6685C263.931 76.7058 262.085 76.712 260.239 76.6747C259.226 76.6561 258.89 76.1843 259.189 75.247C260.133 72.3419 261.109 69.4554 262.097 66.5068ZM261.687 74.7256C261.992 74.8311 262.085 74.887 262.172 74.8932C263.036 74.9056 263.912 74.887 264.788 74.9242C266.28 74.9863 266.696 74.26 267.013 72.9813C267.15 72.4412 266.926 72.1184 266.367 72.0874C265.105 72.0563 263.837 72.0812 262.52 72.0812C262.24 72.9813 261.973 73.8193 261.687 74.7256Z" fill="#1D2029"/>
<path fill-rule="evenodd" clip-rule="evenodd" d="M155.861 66.5071H158.279C158.496 68.9714 158.72 71.411 158.956 74.0678C159.304 73.6581 159.515 73.4408 159.696 73.2112C161.249 71.2248 162.834 69.257 164.344 67.2334C164.773 66.6685 165.208 66.3705 165.929 66.4636C166.314 66.5009 166.718 66.4636 167.265 66.4636C166.923 66.9292 166.706 67.2396 166.457 67.5561C163.499 71.2993 160.541 75.0486 157.576 78.7917C156.663 79.9711 156.663 79.9711 155.177 79.9649C154.978 79.9587 154.78 79.9649 154.519 79.9649C154.562 79.4373 154.966 79.1828 155.208 78.8538C155.774 78.1027 156.607 77.4385 156.868 76.6005C157.11 75.8059 156.762 74.8251 156.669 73.9188C156.408 71.4917 156.128 69.0583 155.861 66.5071Z" fill="#1D2029"/>
<path fill-rule="evenodd" clip-rule="evenodd" d="M235.902 79.9649C236.58 79.1207 237.065 78.4068 237.661 77.7923C238.382 77.0598 238.587 76.2901 238.45 75.2658C238.071 72.6028 237.823 69.9212 237.524 67.2519C237.5 67.0285 237.487 66.7988 237.462 66.5132H239.867C240.091 68.9714 240.302 71.3923 240.532 74.0181C240.849 73.6767 241.042 73.5091 241.191 73.3105C242.776 71.2992 244.367 69.3128 245.908 67.2644C246.356 66.6622 246.822 66.3394 247.574 66.4636C247.941 66.5008 248.307 66.4636 248.823 66.4636C248.587 66.8112 248.438 67.0471 248.264 67.283C245.181 71.1875 242.08 75.0796 239.022 79.0089C238.475 79.7166 237.916 80.1139 237.009 79.9711C236.735 79.9276 236.431 79.9649 235.902 79.9649Z" fill="#1D2029"/>
<path fill-rule="evenodd" clip-rule="evenodd" d="M33.6211 76.6438C31.7753 76.6438 29.9978 76.7494 28.2266 76.619C26.2565 76.4762 25.4299 75.272 25.9022 73.3539C26.213 72.131 26.6107 70.9019 27.1576 69.7659C28.2017 67.5623 29.9916 66.4387 32.4713 66.4635C33.8821 66.476 35.2742 66.4635 36.8093 66.4635C36.6104 67.0843 36.4426 67.6119 36.2438 68.2327C35.1375 68.2327 34.0748 68.2327 33.0058 68.2327C30.7933 68.2451 29.8114 68.872 29.0345 70.9205C28.7424 71.6965 28.5 72.5158 28.3757 73.3352C28.2514 74.1919 28.5746 74.583 29.4198 74.7692C29.8984 74.8685 30.4142 74.8995 30.9114 74.9057C31.9804 74.9306 33.0431 74.9119 34.2364 74.9119C34.0002 75.5762 33.8075 76.11 33.6211 76.6438Z" fill="#1D2029"/>
<path fill-rule="evenodd" clip-rule="evenodd" d="M188.447 68.2391H184.786C184.693 67.5874 185.072 67.1156 185.165 66.5259H195.177C194.991 67.1032 194.811 67.6494 194.618 68.2329H190.783C189.826 71.0636 188.882 73.8507 187.943 76.6255H185.656C186.595 73.8197 187.502 71.1132 188.447 68.2391Z" fill="#1D2029"/>
<path fill-rule="evenodd" clip-rule="evenodd" d="M89.6167 66.6621C88.324 67.674 87.0313 68.6858 85.7386 69.6976C85.3719 69.9832 84.999 70.2749 84.6199 70.5667C83.6815 71.3178 83.6256 71.5661 84.2533 72.5779C84.9555 73.689 85.664 74.8002 86.3601 75.9051C86.4782 76.0913 86.5714 76.3024 86.7454 76.6252C85.9002 76.7307 85.1358 76.7121 84.3838 76.6624C84.1663 76.65 83.9177 76.4079 83.7871 76.2031C83.0662 75.0361 82.364 73.838 81.7052 72.6462C81.2764 71.8764 81.3447 71.3364 81.96 70.7281C82.5877 70.1259 83.29 69.5797 83.9487 69.0272C84.8188 68.3196 85.6951 67.6491 86.5465 66.9229C86.9194 66.6001 87.2985 66.4325 87.8082 66.4697C88.3861 66.507 88.9455 66.4697 89.5297 66.4697C89.5608 66.538 89.598 66.6001 89.6167 66.6621Z" fill="#1D2029"/>
<path fill-rule="evenodd" clip-rule="evenodd" d="M80.4441 66.5007H82.7374C81.6001 69.9149 80.469 73.2545 79.3503 76.6314H77.0508C78.1943 73.2048 79.3192 69.8528 80.4441 66.5007Z" fill="#1D2029"/>
<path d="M33.385 30.8826C33.385 39.064 26.7476 45.675 18.5688 45.675C10.3838 45.675 3.75879 39.064 3.75879 30.8826C3.75879 22.7135 10.3838 16.0901 18.5688 16.0901C26.7413 16.0839 33.385 22.7073 33.385 30.8826Z" fill="#FF6600"/>
<path d="M47.9206 49.8959H80.4989C85.7815 49.8959 86.0487 45.5444 86.0487 43.5332C86.0487 41.1743 85.4583 38.4865 80.3435 36.9036L57.1559 29.6035C56.2485 29.3552 52.532 28.1013 50.1952 25.2459C47.5042 22.0552 47.1748 17.4555 47.1748 14.1717C47.1748 10.6521 47.5912 6.3751 50.9472 3.26514C53.9739 0.409695 57.7525 0 60.5989 0H94.4512V8.80223H64.3837C62.8673 8.80223 61.1085 8.88293 59.7723 10.1493C58.3305 11.4963 58.2621 13.582 58.2621 14.6745C58.2621 17.2693 59.0017 19.7833 63.7063 21.2979L85.2035 28.0951C89.1562 29.349 91.841 30.6092 93.5936 32.2914C97.1298 35.6372 97.4654 40.8391 97.4654 43.6139C97.4654 47.2949 96.9558 51.4105 94.532 54.5142C91.58 58.2884 87.8884 58.6919 84.0227 58.6919H47.9206V49.8959Z" fill="#FF6600"/>
<path d="M122.476 58.698C116.528 58.698 113.34 57.6924 110.568 55.439C107.709 53.0926 106.112 49.8213 106.112 44.1973V20.4536H99.9717V12.8991H106.112V0.00610352H115.938V12.8991H128.349V20.4536H115.938V39.6782C115.938 42.6951 115.683 46.8913 118.529 49.2253C120.711 51.0752 124.402 51.1621 126.18 51.1621H128.61V58.698H122.476Z" fill="#FF6600"/>
<path d="M172.99 57.0283C171.057 58.6236 168.366 58.6981 166.017 58.6981H150.318C145.209 58.6981 141.741 57.9532 138.715 55.3584C135.036 52.1616 134.19 47.7232 134.19 42.273V12.8992H144.004V40.5039C144.004 44.4457 144.433 46.6369 145.688 48.3067C147.459 50.7401 150.15 51.156 153.668 51.156H161.815C163.158 51.156 164.084 50.8146 164.681 50.2373C165.52 49.393 165.52 48.3874 165.52 47.5494V12.8992H175.339V50.7401C175.339 52.3354 175.246 55.1908 172.99 57.0283Z" fill="#FF6600"/>
<path d="M182.057 29.6718C182.057 24.8114 182.889 20.0316 186.668 16.7602C190.788 13.1475 196.575 12.8992 200.024 12.8992H206.655V20.4537H202.547C199.949 20.4537 196.5 20.7765 194.151 23.5512C192.299 25.8108 191.889 28.9145 191.889 32.279V58.7043H182.057V29.6718Z" fill="#FF6600"/>
<path d="M211.094 20.6089C211.094 19.355 211.262 17.1823 212.355 15.5808C214.04 13.2406 217.054 12.8992 219.074 12.8992H259.128C262.317 12.8992 267.276 13.4827 270.458 16.4188C272.981 18.8397 274.492 22.8746 274.492 27.3192V58.6981H264.666V28.8338C264.666 26.9095 264.417 24.3085 262.82 22.5456C261.142 20.6089 258.625 20.4537 256.866 20.4537H247.705V58.6981H237.886V20.4537H223.523C222.1 20.4537 221.597 20.8634 221.336 21.1117C221.18 21.2793 220.932 21.7821 220.932 23.4643V58.6981H211.094V20.6089Z" fill="#FF6600"/>
<path d="M283.644 42.3598L282.892 0.00610352H294.47L293.724 42.3598H283.644ZM283.557 48.3128H293.805V58.698H283.557V48.3128Z" fill="#FF6600"/>
</svg>
