<svg width="2192" height="450" xmlns="http://www.w3.org/2000/svg"><style>.prefix__ast0{fill:#007e48}</style><path fill="none" id="prefix__canvas_background" d="M-1-1h2194v452H-1z"/><g><path id="prefix__svg_1" d="M209.145 337.813l-4.1 20.2h-39.4l-11.4 67.5h-28.4l15.5-87.7h67.8zm65.3 57.5l-2.6-31.3-15.5 31.3h18.1zm17.7-57.5l12.5 87.4h-28.4l-.7-11.4h-28.4l-5.9 11.4h-28l49.8-87.4h29.1zm87.3 39.8h11.8c6.6 0 14-4.1 14-11.8 0-6.6-7.4-7.7-13.6-7.7h-8.1l-4.1 19.5zm-9.9 47.5h-28.8l18.8-87.4h42c21.4 0 31.7 8.5 31.7 22.1 0 22.5-16.6 37.6-43.5 37.6h-14.3l-5.9 27.7zm136.8-29.8l-2.6-31.3-15.5 31.3h18.1zm17.7-57.5l12.5 87.4h-28.4l-.7-11.4h-28.4l-5.9 11.4h-28l49.8-87.4h29.1zm89.6 30.6h26.9l6.6-30.6h28.4l-18.4 87.3h-28.8l7.8-36.5h-26.9l-7.8 36.5h-28.7l18.8-87.3h28.4l-6.3 30.6zm136 56.7h-28.3l14-67.1h-25.5l4.4-20.2h79.7l-4.1 20.2h-25.8l-14.4 67.1zm167.1-87.3l-18.5 87.3h-27.6l5.9-27.6 6.3-22.5-42.1 50.1h-26.9l18.8-87.3h27.3l-5.9 27.6-6.3 22.5 42.4-50.1h26.6zm87 20.2h-11.8c-6.6 0-13.6 3.7-13.6 11.4 0 3.7 3.3 5.9 12.2 5.9h10l3.2-17.3zm-15.9 36.5l-19.9 30.2h-30.6l25.4-34.3c-6.3-2.9-11.4-11.8-11.4-20.6 0-11.1 8.1-32.4 43.9-32.4h42l-18.8 87h-28.8l6.6-30.2h-8.5v.3h.1zm181.5-28.4l30.9-28.3h33.6l-38.7 32.8 23.6 54.5h-34.3l-13.7-35-8.1 7.4-5.9 27.6h-28.7l18.8-87.3h28.4l-5.9 28.3zm140.1 29.2l-2.6-31.3-15.5 31.3h18.1zm17.7-57.5l12.5 87.4h-28.4l-.7-11.4h-28.4l-5.9 11.4h-28l49.8-87.4h29.1zm87.7 0l-4.8 22.5c-.4 1.1-.4 2.2-.4 2.9 0 4.8 3.3 7 9.2 7 5.5 0 10.7-.7 13.3-1.5l6.6-31h28.8l-18.8 87.4h-28.8l7.4-35.4c-5.2 1.1-9.2 1.8-24.3 1.8-11.4 0-23.6-6.3-23.6-20.6 0-1.8.4-4.1.7-6.3l5.9-26.9h28.8v.1zm166.7 0l-4.4 20.2h-42.4l-2.6 12.6h35.7l-4.4 20.3h-35.7l-3 14h44.3l-4.5 20.2h-72.6l18.4-87.3h71.2zm91.1 33.5c0-.7.4-1.8.4-2.6 0-7.4-4.4-11.8-12.5-11.8-18.4 0-22.9 28.4-22.9 35.8 0 7.7 3.3 13.3 13.3 13.3 9.2 0 14.7-6.3 17.7-14.7h27.7c-7.4 22.5-26.5 36.1-49.4 36.1-24.3 0-38-12.5-38-33.6 0-34.3 27.3-58.3 54.6-58.3 24.3 0 36.5 11.1 36.5 30.2 0 1.8 0 3.7-.4 5.5h-27v.1zm104.3 53.8h-28.7l14.3-67.1h-25.8l4.4-20.2h80.1l-4.5 20.2h-25.4l-14.4 67.1zm104-52.3h11.8c5.5 0 11.8-2.9 11.8-9.6 0-4.4-4.4-4.8-10.3-4.8h-10l-3.3 14.4zm-7 32.1h12.5c7 0 14.4-1.8 14.4-10.3 0-5.2-5.2-5.9-14.4-5.9h-9.2l-3.3 16.2zm-14-67.1h41.7c17.7 0 31 3.7 31 17 0 11.1-8.5 19.9-15.9 24 7.4 1.8 10.7 7.7 10.7 15.1 0 23.2-20.6 31.3-43.9 31.3h-42.4l18.8-87.4zm155.6 57.5l-2.6-31.3-15.5 31.3h18.1zm17.7-57.5l12.5 87.4h-28.4l-.7-11.4h-28.4l-5.9 11.4h-28l49.8-87.4h29.1zm127.6-270.3c-14 0-25.1-11.4-25.1-25.1 0-14 11.4-25.1 25.1-25.1 14 0 25.1 11.4 25.1 25.1.3 13.7-11.1 25.1-25.1 25.1m0-56.4c-17 0-31 14-31 31.3s14 31 31 31c17.3 0 31.3-13.6 31.3-31 0-17.3-14-31.3-31.3-31.3z" class="prefix__ast0"/><path id="prefix__svg_2" d="M2170.345 35.413l-.4.7-.7 1.5-.7.7-1.8.7h-.4l-1.5.4h-10l1.5-7.4h10.7l1.5.4 1.1 1.1.7.7v1.2zm7-3.3l-.4-1.5-1.1-1.5-1.5-1.1-1.5-.7h-.7l-1.5-.4h-1.8l-1.8-.4h-17l-5.2 28.8h7l2.2-11.8h3.3l1.8.4.4.4 1.5.7.4.4.7 1.1 1.1 1.5 1.1 1.8 4.1 6.3h8.5l-2.9-5.5-1.1-1.5-1.1-1.5-.7-1.1-.7-1.1-.7-.7-1.5-1.1-1.5-.7.7-.4 1.8-.4 1.8-.4 1.5-1.1 1.5-.7 1.5-1.5 1.1-1.1.7-1.5.4-1.5-.4-2.2zm-756.6 219.4h58.6l32.1-182.5h-154.5l-32.1 120.6c-2.2 8.1-10 14.4-18.4 14.4h-14.4l-8.5 47.9h32.4c30.6 0 57.2-20.3 64.9-49.8l25.1-94.4h39.5l-24.7 143.8zm568.2-38h92.2l-6.6 38.3h-104.7c-32.4 0-62.7-17.7-79.3-45.4-16.2-28.4-16.2-63.1 0-91.8 16.6-28.4 46.8-45.4 79.3-45.4h137.2l-16.2 91.4h-58.4l9.2-52.7h-52.4c-18.8 0-36.5 10-45.7 26.2-9.6 16.6-9.6 36.9 0 53.1 8.9 16 26.6 26.3 45.4 26.3" class="prefix__ast0"/><path id="prefix__svg_3" d="M1831.145 69.013h63.4l-63.8 91.4 42.8 91.1h-63.8l-42.7-91.1 64.1-91.4z" class="prefix__ast0"/><path id="prefix__svg_4" d="M1724.645 69.013h58.6l-32.1 182.5h-59l32.5-182.5zm-77.8 110.6h-68.6l-5.9 33.9h97.7l-6.7 38h-156.7l32.1-182.5h156.7l-7 38.7h-97.3l-5.9 33.5h68.2l-6.6 38.4zm-450.6 71.9l16.2-91.1-85.5 91.1h-67.2l31.8-182.5h58.6l-15.9 91.4 85.2-91.4h67.8l-32 182.5h-59zm-278-91.1l71.5-91.4h73l-71.2 91.4 42.8 91.1h-73.4l-42.7-91.1zm16.2-91.4l-32.5 182.5h-58.2l32.1-182.5h58.6zm-219.8 182.5h73.4l71.5-91.1-42.7-91.4h-73.1l42.5 91.4-71.6 91.1z" class="prefix__ast0"/><path id="prefix__svg_5" d="M525.845 107.713h92.2c18.8 0 36.5 10 46.1 26.2 9.2 16.6 9.2 36.9 0 53.1-9.6 16.2-27.3 26.5-46.1 26.5h-52l9.2-53.1h-58.6l-15.9 91.4h136.8c32.8 0 63.1-17.7 79.3-45.4 16.2-28.4 16.2-63.1 0-91.4s-46.5-45.4-79.3-45.4h-104.7l-7 38.1z" class="prefix__ast0"/><path id="prefix__svg_6" d="M161.545 227.913h184.4c38.7 0 74.5-20.6 94-54.2 19.2-33.6 19.2-74.9 0-108.4-19.5-33.6-54.9-54.6-94-54.6h-144.9l-10.3 58.3h146c18.1 0 34.7 9.6 43.9 25.1 8.8 15.5 8.8 35 0 50.5s-25.8 25.1-43.9 25.1h-46.5l13.6-77.1h-184c-38.7 0-74.5 20.6-94 54.2-19.2 33.6-19.2 74.9 0 108 19.5 33.6 55.3 54.2 94 54.2h145.6l10-57.9h-146c-18.1 0-35-9.6-43.9-24.7-8.8-15.5-8.8-35 0-50.9 8.8-15.5 25.8-25.1 43.9-25.1h46.5l-14.4 77.5z" fill="#0092d4"/><path id="prefix__svg_7" d="M2067.545 290.213h-1710.2l-3.3 19.2h1710.5l3-19.2z" class="prefix__ast0"/></g></svg>